<?xml version="1.0" encoding="utf-8"?>
<!-- Svg Vector Icons : http://www.onlinewebfonts.com/icon -->
<!DOCTYPE svg PUBLIC "-//W3C//DTD SVG 1.1//EN" "http://www.w3.org/Graphics/SVG/1.1/DTD/svg11.dtd">
<svg version="1.1" xmlns="http://www.w3.org/2000/svg" xmlns:xlink="http://www.w3.org/1999/xlink" x="0px" y="0px" viewBox="0 0 1000 1000" enable-background="new 0 0 1000 1000" xml:space="preserve">
<metadata> Svg Vector Icons : http://www.onlinewebfonts.com/icon </metadata>
<g><g transform="translate(0.000000,511.000000) scale(0.100000,-0.100000)"><path d="M761.9,4297.8c-311.6-115.5-542.6-361.7-629.7-671.1c-32.7-109-34.9-318.1-30.5-1884.8l6.5-1762.8l80.6-170c135.1-278.9,363.9-470.7,660.2-549.1c100.2-26.2,257.1-32.7,690.7-32.7H2102V-2226v-1455.5l52.3-109c26.2-58.8,89.3-146,139.5-189.6c174.3-156.9,41.4-150.3,2752-143.8c2185.5,6.5,2436.1,10.9,2505.8,41.4c122,56.7,239.7,172.1,294.2,292l52.3,109V-2226v1453.4h562.2c433.6,0,590.5,6.5,690.7,32.7c296.3,78.4,525.1,270.2,660.2,549.1l80.6,170l6.5,1762.8c4.4,1566.7,2.2,1775.9-30.5,1884.8c-89.3,315.9-331.2,568.7-651.5,677.7c-124.2,43.6-178.7,43.6-4225,41.4H892.6L761.9,4297.8z M9153.1,3853.3c128.6-67.5,239.7-202.6,278.9-335.6c50.1-167.8,52.3-3288.1,2.2-3453.7c-41.4-139.5-130.7-246.2-274.5-324.7L9042-325.9l-570.9-6.5l-573.1-8.7v677.7v677.7h337.7h337.7l-4.4,780.1l-6.5,777.9H5000H1437.4l-6.5-777.9l-4.4-780.1h337.7H2102V336.5v-677.7l-570.9,8.7L958-325.9l-117.7,65.4C696.5-182.1,607.2-75.4,565.8,64.1C515.7,229.7,517.9,3350,568,3517.8c50.1,172.1,198.3,318.1,379.1,374.8c30.5,8.7,1869.6,15.2,4085.6,13.1l4031.1-4.4L9153.1,3853.3z M2102,1787.7v-337.7h-109h-109v337.7v337.7h109h109V1787.7z M7462.2-64.5c0-2161.5,0-2189.9-43.6-2233.4c-43.6-43.6-71.9-43.6-2418.7-43.6c-2346.8,0-2375.1,0-2418.7,43.6c-43.6,43.6-43.6,71.9-43.6,2233.4v2189.9H5000h2462.2V-64.5z M8115.9,1787.7v-337.7h-109H7898v337.7v337.7H8007h109V1787.7z M7462.2-2838.3c0-32.7-15.3-82.8-34.9-109l-32.7-47.9H5004.4c-1313.9,0-2403.4,8.7-2418.7,19.6c-17.4,8.7-34.9,58.8-41.4,108.9l-13.1,89.3h2466.6h2464.4V-2838.3z M7462.2-3513.8c0-32.7-15.3-82.8-34.9-108.9l-32.7-47.9H5000H2605.3l-32.7,47.9c-19.6,26.2-34.9,76.3-34.9,108.9v61H5000h2462.2V-3513.8z"/><path d="M4782.1,279.8v-1412l-479.4,479.4l-479.4,479.4l-156.9-159.1l-159.1-156.9l747.4-747.4L5000-1982l745.2,745.2l747.4,747.4l-159.1,156.9l-156.9,159.1l-479.4-479.4l-479.4-479.4v1412v1409.8H5000h-217.9V279.8z"/></g></g>
</svg>